<svg class="typst-doc" viewBox="0 0 283.46456692913387 170.07874015748033" width="283.46456692913387pt" height="170.07874015748033pt" xmlns="http://www.w3.org/2000/svg" xmlns:xlink="http://www.w3.org/1999/xlink" xmlns:h5="http://www.w3.org/1999/xhtml">
    <path class="typst-shape" fill="#faf6ee" fill-rule="nonzero" d="M 0 0v 170.07874 h 283.46457 v -170.07874 Z "/>
    <g>
        <g class="typst-group">
            <g>
                <path class="typst-shape" fill="#f2f2f2" fill-rule="nonzero" transform="matrix(1 0 0 1 35.21310236220474 -28.346456692913385)" d="M 0 0m 0 28.346457 v 164.40945 h 238.11023 v -164.40945 h -238.11023 Z "/>
                <path class="typst-shape" fill="none" stroke="#ffffff" stroke-width="0.5" stroke-linecap="butt" stroke-linejoin="miter" stroke-miterlimit="4" transform="matrix(1 0 0 1 35.21310236220474 -28.346456692913385)" d="M 0 0m 0 192.7559 v -164.40945 "/>
                <path class="typst-shape" fill="none" stroke="#000000" stroke-width="0.5" stroke-linecap="butt" stroke-linejoin="miter" stroke-miterlimit="4" transform="matrix(1 0 0 1 35.21310236220474 -25.511811023622048)" d="M 0 0m 0 189.92126 v 2.8346405 "/>
                <path class="typst-shape" fill="none" transform="matrix(1 0 0 1 33.35310236220473 -15.979842519685036)" d="M 0 0m 0 187.4759 h 3.72 v 5.279999 h -3.72 v -5.279999 Z "/>
                <g class="typst-group">
                    <g>
                        <g class="typst-group" transform="matrix(1 0 0 1 33.353102267716544 171.49606294488194)">
                            <g>
                                <g class="typst-text" transform="matrix(1 0 0 -1 0 5.264)">
                                    <use xlink:href="#g8DC832AB2303C247CB5C2880898D7D08" x="0" y="0" fill="#000000" fill-rule="nonzero"/>
                                </g>
                            </g>
                        </g>
                    </g>
                </g>
                <path class="typst-shape" fill="none" stroke="#ffffff" stroke-width="0.5" stroke-linecap="butt" stroke-linejoin="miter" stroke-miterlimit="4" transform="matrix(1 0 0 1 74.89814173228345 -28.346456692913385)" d="M 0 0m 0 192.7559 v -164.40945 "/>
                <path class="typst-shape" fill="none" stroke="#000000" stroke-width="0.5" stroke-linecap="butt" stroke-linejoin="miter" stroke-miterlimit="4" transform="matrix(1 0 0 1 74.89814173228345 -25.511811023622048)" d="M 0 0m 0 189.92126 v 2.8346405 "/>
                <path class="typst-shape" fill="none" transform="matrix(1 0 0 1 70.29814173228345 -15.907842519685042)" d="M 0 0m 0 187.4039 h 9.2 v 5.352005 h -9.2 v -5.352005 Z "/>
                <g class="typst-group">
                    <g>
                        <g class="typst-group" transform="matrix(1 0 0 1 70.29814166929133 171.49606294488194)">
                            <g>
                                <g class="typst-text" transform="matrix(1 0 0 -1 0 5.264)">
                                    <use xlink:href="#g8DC832AB2303C247CB5C2880898D7D08" x="0" y="0" fill="#000000" fill-rule="nonzero"/>
                                    <use xlink:href="#gAE020C908DEB7FF2A77299C77E5EC45B" x="3.72" y="0" fill="#000000" fill-rule="nonzero"/>
                                    <use xlink:href="#g5A07605E11A874F3956AF0BDB900C602" x="5.48" y="0" fill="#000000" fill-rule="nonzero"/>
                                </g>
                            </g>
                        </g>
                    </g>
                </g>
                <path class="typst-shape" fill="none" stroke="#ffffff" stroke-width="0.5" stroke-linecap="butt" stroke-linejoin="miter" stroke-miterlimit="4" transform="matrix(1 0 0 1 114.58318110236219 -28.346456692913385)" d="M 0 0m 0 192.7559 v -164.40945 "/>
                <path class="typst-shape" fill="none" stroke="#000000" stroke-width="0.5" stroke-linecap="butt" stroke-linejoin="miter" stroke-miterlimit="4" transform="matrix(1 0 0 1 114.58318110236219 -25.511811023622048)" d="M 0 0m 0 189.92126 v 2.8346405 "/>
                <path class="typst-shape" fill="none" transform="matrix(1 0 0 1 112.72318110236219 -15.915842519685038)" d="M 0 0m 0 187.41191 h 3.72 v 5.343994 h -3.72 v -5.343994 Z "/>
                <g class="typst-group">
                    <g>
                        <g class="typst-group" transform="matrix(1 0 0 1 112.723181007874 171.49606291338586)">
                            <g>
                                <g class="typst-text" transform="matrix(1 0 0 -1 0 5.264)">
                                    <use xlink:href="#g206FC7BB26DEA55AF3EF67CCCC86655B" x="0" y="0" fill="#000000" fill-rule="nonzero"/>
                                </g>
                            </g>
                        </g>
                    </g>
                </g>
                <path class="typst-shape" fill="none" stroke="#ffffff" stroke-width="0.5" stroke-linecap="butt" stroke-linejoin="miter" stroke-miterlimit="4" transform="matrix(1 0 0 1 154.26822047244093 -28.346456692913385)" d="M 0 0m 0 192.7559 v -164.40945 "/>
                <path class="typst-shape" fill="none" stroke="#000000" stroke-width="0.5" stroke-linecap="butt" stroke-linejoin="miter" stroke-miterlimit="4" transform="matrix(1 0 0 1 154.26822047244093 -25.511811023622048)" d="M 0 0m 0 189.92126 v 2.8346405 "/>
                <path class="typst-shape" fill="none" transform="matrix(1 0 0 1 149.66822047244094 -15.907842519685042)" d="M 0 0m 0 187.4039 h 9.2 v 5.352005 h -9.2 v -5.352005 Z "/>
                <g class="typst-group">
                    <g>
                        <g class="typst-group" transform="matrix(1 0 0 1 149.66822040944882 171.49606294488194)">
                            <g>
                                <g class="typst-text" transform="matrix(1 0 0 -1 0 5.264)">
                                    <use xlink:href="#g206FC7BB26DEA55AF3EF67CCCC86655B" x="0" y="0" fill="#000000" fill-rule="nonzero"/>
                                    <use xlink:href="#gAE020C908DEB7FF2A77299C77E5EC45B" x="3.72" y="0" fill="#000000" fill-rule="nonzero"/>
                                    <use xlink:href="#g5A07605E11A874F3956AF0BDB900C602" x="5.48" y="0" fill="#000000" fill-rule="nonzero"/>
                                </g>
                            </g>
                        </g>
                    </g>
                </g>
                <path class="typst-shape" fill="none" stroke="#ffffff" stroke-width="0.5" stroke-linecap="butt" stroke-linejoin="miter" stroke-miterlimit="4" transform="matrix(1 0 0 1 193.95325984251966 -28.346456692913385)" d="M 0 0m 0 192.7559 v -164.40945 "/>
                <path class="typst-shape" fill="none" stroke="#000000" stroke-width="0.5" stroke-linecap="butt" stroke-linejoin="miter" stroke-miterlimit="4" transform="matrix(1 0 0 1 193.95325984251966 -25.511811023622048)" d="M 0 0m 0 189.92126 v 2.8346405 "/>
                <path class="typst-shape" fill="none" transform="matrix(1 0 0 1 192.09325984251964 -15.979842519685036)" d="M 0 0m 0 187.4759 h 3.72 v 5.279999 h -3.72 v -5.279999 Z "/>
                <g class="typst-group">
                    <g>
                        <g class="typst-group" transform="matrix(1 0 0 1 192.09325974803144 171.49606294488194)">
                            <g>
                                <g class="typst-text" transform="matrix(1 0 0 -1 0 5.264)">
                                    <use xlink:href="#gC51173AD8828830AA5175BEF9E953F3B" x="0" y="0" fill="#000000" fill-rule="nonzero"/>
                                </g>
                            </g>
                        </g>
                    </g>
                </g>
                <path class="typst-shape" fill="none" stroke="#ffffff" stroke-width="0.5" stroke-linecap="butt" stroke-linejoin="miter" stroke-miterlimit="4" transform="matrix(1 0 0 1 233.63829921259838 -28.346456692913385)" d="M 0 0m 0 192.7559 v -164.40945 "/>
                <path class="typst-shape" fill="none" stroke="#000000" stroke-width="0.5" stroke-linecap="butt" stroke-linejoin="miter" stroke-miterlimit="4" transform="matrix(1 0 0 1 233.63829921259838 -25.511811023622048)" d="M 0 0m 0 189.92126 v 2.8346405 "/>
                <path class="typst-shape" fill="none" transform="matrix(1 0 0 1 229.03829921259842 -15.907842519685042)" d="M 0 0m 0 187.4039 h 9.2 v 5.352005 h -9.2 v -5.352005 Z "/>
                <g class="typst-group">
                    <g>
                        <g class="typst-group" transform="matrix(1 0 0 1 229.03829914960627 171.49606294488194)">
                            <g>
                                <g class="typst-text" transform="matrix(1 0 0 -1 0 5.264)">
                                    <use xlink:href="#gC51173AD8828830AA5175BEF9E953F3B" x="0" y="0" fill="#000000" fill-rule="nonzero"/>
                                    <use xlink:href="#gAE020C908DEB7FF2A77299C77E5EC45B" x="3.72" y="0" fill="#000000" fill-rule="nonzero"/>
                                    <use xlink:href="#g5A07605E11A874F3956AF0BDB900C602" x="5.48" y="0" fill="#000000" fill-rule="nonzero"/>
                                </g>
                            </g>
                        </g>
                    </g>
                </g>
                <path class="typst-shape" fill="none" stroke="#ffffff" stroke-width="0.5" stroke-linecap="butt" stroke-linejoin="miter" stroke-miterlimit="4" transform="matrix(1 0 0 1 273.32333858267714 -28.346456692913385)" d="M 0 0m 0 192.7559 v -164.40945 "/>
                <path class="typst-shape" fill="none" stroke="#000000" stroke-width="0.5" stroke-linecap="butt" stroke-linejoin="miter" stroke-miterlimit="4" transform="matrix(1 0 0 1 273.32333858267714 -25.511811023622048)" d="M 0 0m 0 189.92126 v 2.8346405 "/>
                <path class="typst-shape" fill="none" transform="matrix(1 0 0 1 271.4633385826771 -15.907842519685042)" d="M 0 0m 0 187.4039 h 3.72 v 5.352005 h -3.72 v -5.352005 Z "/>
                <g class="typst-group">
                    <g>
                        <g class="typst-group" transform="matrix(1 0 0 1 271.463338488189 171.49606294488194)">
                            <g>
                                <g class="typst-text" transform="matrix(1 0 0 -1 0 5.264)">
                                    <use xlink:href="#g5A07605E11A874F3956AF0BDB900C602" x="0" y="0" fill="#000000" fill-rule="nonzero"/>
                                </g>
                            </g>
                        </g>
                    </g>
                </g>
                <path class="typst-shape" fill="none" stroke="#000000" stroke-width="0.5" stroke-linecap="butt" stroke-linejoin="miter" stroke-miterlimit="4" transform="matrix(1 0 0 1 35.21310236220474 -28.346456692913385)" d="M 0 0m 0 192.7559 h 238.11023 "/>
                <path class="typst-shape" fill="none" stroke="#000000" stroke-width="0.5" stroke-linecap="butt" stroke-linejoin="miter" stroke-miterlimit="4" transform="matrix(1 0 0 1 35.21310236220474 -28.346456692913385)" d="M 0 0m 0 192.7559 v -164.40945 "/>
                <path class="typst-shape" fill="#222222" fill-rule="nonzero" transform="matrix(1 0 0 1 111.58318110236219 -107.55118110236221)" d="M 0 0m 3 186.7559 c -1.655352 0 -3 1.3446503 -3 3 c 0 1.6553497 1.344648 3 3 3 c 1.6553521 0 3 -1.3446503 3 -3 c 0 -1.6553497 -1.3446479 -3 -3 -3 Z "/>
                <path class="typst-shape" fill="#222222" fill-rule="nonzero" transform="matrix(1 0 0 1 270.32333858267714 -52.74803149606299)" d="M 0 0m 3 186.7559 c -1.655352 0 -3 1.3446503 -3 3 c 0 1.6553497 1.344648 3 3 3 c 1.6553521 0 3 -1.3446503 3 -3 c 0 -1.6553497 -1.3446479 -3 -3 -3 Z "/>
                <path class="typst-shape" fill="#222222" fill-rule="nonzero" transform="matrix(1 0 0 1 32.21310236220473 -162.35433070866142)" d="M 0 0m 3 186.7559 c -1.655352 0 -3 1.3446503 -3 3 c 0 1.6553497 1.344648 3 3 3 c 1.6553521 0 3 -1.3446503 3 -3 c 0 -1.6553497 -1.3446479 -3 -3 -3 Z "/>
                <path class="typst-shape" fill="none" transform="matrix(1 0 0 1 152.06322047244095 -5.669291338582676)" d="M 0 0m 0 186.8159 h 4.41 v 5.9400024 h -4.41 v -5.9400024 Z "/>
                <g class="typst-group">
                    <g>
                        <g class="typst-group" transform="matrix(1 0 0 1 152.06322047244095 181.1466141732284)">
                            <g>
                                <g class="typst-text" transform="matrix(1 0 0 -1 0 5.922000000000001)">
                                    <use xlink:href="#g11B84C210659ADCB035A0A0A8AF7C10D" x="0" y="0" fill="#000000" fill-rule="nonzero"/>
                                </g>
                            </g>
                        </g>
                    </g>
                </g>
                <path class="typst-shape" fill="none" transform="matrix(1 0 0 1 0 -104.2916811023622)" d="M 0 0m 0 192.7559 v -12.518997 h 8.064 v 12.518997 h -8.064 Z "/>
                <g class="typst-group">
                    <g>
                        <g class="typst-group" transform="matrix(0.00000000000000006123233995736766 -1 1 0.00000000000000006123233995736766 -0.00000014173228310672733 88.46422440944883)">
                            <g>
                                <g class="typst-text" transform="matrix(1 0 0 -1 0 5.922000000000001)">
                                    <use xlink:href="#g3C4CB4D03344E8EC64EDEA5507AFD5CE" x="0" y="0" fill="#000000" fill-rule="nonzero"/>
                                    <use xlink:href="#g192899D9EC86A1DA78875119DCCE126C" x="4.5" y="0" fill="#000000" fill-rule="nonzero"/>
                                    <use xlink:href="#g964C349C6AA2468F8D344E07736D6B7C" x="7.848" y="0" fill="#000000" fill-rule="nonzero"/>
                                </g>
                            </g>
                        </g>
                    </g>
                </g>
            </g>
        </g>
    </g>
    <defs id="glyph">
        <symbol id="g8DC832AB2303C247CB5C2880898D7D08" overflow="visible">
            <path d="M 0 0m 0.48800004 3.7440002 c 0 -0.16799998 0.15200001 -0.31200004 0.32 -0.31200004 c 0.13600004 0 0.376 0.14400005 0.376 0.31999993 c 0 0.06400013 -0.015999913 0.11199999 -0.031999946 0.16799998 c -0.016000032 0.055999994 -0.06400001 0.12800026 -0.06400001 0.19199991 c 0 0.20000029 0.20799994 0.4880004 0.79200006 0.4880004 c 0.2880001 0 0.6960001 -0.20000029 0.6960001 -0.9680002 c 0 -0.5120001 -0.18400002 -0.928 -0.65600014 -1.408 l -0.592 -0.5840001 c -0.78400004 -0.8000001 -0.91200006 -1.184 -0.91200006 -1.6560001 c 0 0 0.40800005 0.016 0.66400003 0.016 h 1.4 c 0.25600004 0 0.6240001 -0.016 0.6240001 -0.016 c 0.10400009 0.42400002 0.18400002 1.024 0.19200015 1.264 c -0.048000097 0.04000008 -0.15200019 0.055999994 -0.23200011 0.04000008 c -0.13599992 -0.5680001 -0.27200007 -0.76800007 -0.55999994 -0.76800007 h -1.4240001 c 0 0.384 0.55200005 0.92800003 0.592 0.968 l 0.80799997 0.77600014 c 0.4560001 0.44000006 0.8000002 0.79200006 0.8000002 1.4000001 c 0 0.8640001 -0.704 1.2159998 -1.3520001 1.2159998 c -0.888 0 -1.44 -0.65600014 -1.44 -1.1359999 Z "/>
        </symbol>
        <symbol id="gAE020C908DEB7FF2A77299C77E5EC45B" overflow="visible">
            <path d="M 0 0m 0.45600003 0.344 c 0 -0.23200001 0.19199997 -0.42400002 0.42400002 -0.42400002 c 0.23200005 0 0.42399997 0.192 0.42399997 0.42400002 c 0 0.23200002 -0.19199991 0.424 -0.42399997 0.424 c -0.23200005 0 -0.42400002 -0.19199997 -0.42400002 -0.424 Z "/>
        </symbol>
        <symbol id="g5A07605E11A874F3956AF0BDB900C602" overflow="visible">
            <path d="M 0 0m 2.552 1.5120001 c 0 -0.76000005 -0.39999986 -1.32 -0.88 -1.32 c -0.30400002 0 -0.408 0.20000002 -0.528 0.36000004 c -0.10399997 0.13599998 -0.24000001 0.25599998 -0.408 0.25599998 c -0.15200001 0 -0.30400005 -0.13599998 -0.30400005 -0.296 c 0 -0.328 0.68000007 -0.6 1.136 -0.6 c 0.9920001 0 1.6960001 0.736 1.6960001 1.7440002 c 0 0.776 -0.536 1.4720001 -1.432 1.4720001 c -0.3440001 0 -0.6400001 -0.07200003 -0.78400004 -0.12800002 l 0.15999997 1.3360002 c 0.296 -0.032000065 0.55200005 -0.07200003 0.936 -0.07200003 c 0.24000001 0 0.5120001 0.015999794 0.84000015 0.04799986 l 0.12800002 0.54400015 l -0.055999994 0.031999588 c -0.4560001 -0.04799986 -0.888 -0.08799982 -1.3120002 -0.08799982 c -0.296 0 -0.584 0.01600027 -0.864 0.03999996 l -0.272 -2.3040001 c 0.42400002 0.16000009 0.72800004 0.19200015 1.016 0.19200015 c 0.52 0 0.928 -0.3440001 0.928 -1.2160001 Z "/>
        </symbol>
        <symbol id="g206FC7BB26DEA55AF3EF67CCCC86655B" overflow="visible">
            <path d="M 0 0m 1.72 4.6000004 c 0.3440001 0 0.66400003 -0.20800018 0.66400003 -0.72000027 c 0 -0.39999986 -0.464 -1.016 -1.256 -1.128 l 0.04000008 -0.25600004 c 0.13599992 0.016000032 0.27999997 0.016000032 0.38399994 0.016000032 c 0.4560001 0 1.0480001 -0.12800002 1.0480001 -1.0320001 c 0 -1.064 -0.712 -1.28 -0.9920001 -1.28 c -0.408 0 -0.48000002 0.184 -0.576 0.328 c -0.08000004 0.11200005 -0.18400002 0.20800006 -0.34400004 0.20800006 c -0.16799998 0 -0.336 -0.15200001 -0.336 -0.28000003 c 0 -0.32000002 0.67200005 -0.536 1.1520001 -0.536 c 0.952 0 1.8000001 0.616 1.8000001 1.6720002 c 0 0.8720001 -0.6559999 1.1839999 -1.128 1.264 l -0.007999897 0.016000032 c 0.6559999 0.31200004 0.8399999 0.63999987 0.8399999 1.0639999 c 0 0.24000001 -0.055999994 0.43199992 -0.2479999 0.6320002 c -0.17600012 0.17600012 -0.4560001 0.3119998 -0.8720001 0.3119998 c -1.1760001 0 -1.5120001 -0.7680001 -1.5120001 -1.0319998 c 0 -0.11200023 0.08000001 -0.27200007 0.27199998 -0.27200007 c 0.28000003 0 0.31200004 0.26399994 0.31200004 0.4159999 c 0 0.5120001 0.55200005 0.6080003 0.76 0.6080003 Z "/>
        </symbol>
        <symbol id="gC51173AD8828830AA5175BEF9E953F3B" overflow="visible">
            <path d="M 0 0m 3.44 1.7520001 h -0.66400003 v 2.3360002 c 0 0.4000001 0 0.7119999 0.016000032 0.776 l -0.016000032 0.015999794 h -0.2559998 c -0.055999994 0 -0.096000195 -0.04799986 -0.12800002 -0.08799982 c -0.50400007 -0.6160002 -1.4320002 -1.9360001 -2.1680002 -3.0800002 c 0.024000004 -0.120000005 0.072 -0.33600008 0.312 -0.33600008 h 1.6320002 v -0.736 c 0 -0.36800003 -0.30400014 -0.36800003 -0.6480001 -0.39200002 c -0.047999978 -0.048000008 -0.047999978 -0.216 0 -0.264 c 0.25600004 0.008 0.5760001 0.016 0.9440001 0.016 c 0.3119998 0 0.61599994 -0.008 0.872 -0.016 c 0.04799986 0.048 0.04799986 0.216 0 0.264 c -0.39199996 0.03199999 -0.5600002 0.015999988 -0.5600002 0.39200002 v 0.736 h 0.55200005 c 0.11199999 0 0.23200011 0.15200007 0.23200011 0.24800003 c 0 0.08000004 -0.032000065 0.12800002 -0.120000124 0.12800002 Z m -1.2719998 2.3040001 v -2.3040001 h -1.5280001 c 0.40800005 0.65600014 0.976 1.552 1.5280001 2.3040001 Z "/>
        </symbol>
        <symbol id="g11B84C210659ADCB035A0A0A8AF7C10D" overflow="visible">
            <path d="M 0 0m 1.6379999 3.222 c -0.2069999 0.306 -0.14399993 0.31500006 0.26100004 0.3599999 c 0.05400002 0.05400014 0.05400002 0.24300003 0 0.29700017 c -0.24300003 -0.009000063 -0.63899994 -0.018000126 -0.909 -0.018000126 c -0.26999998 0 -0.53999996 0.009000063 -0.7739999 0.018000126 c -0.05399999 -0.05400014 -0.05399999 -0.24300003 0 -0.29700017 c 0.30599996 -0.02699995 0.55799997 -0.17999983 0.80999994 -0.549 l 0.783 -1.1429999 c 0.045000076 -0.062999964 0.045000076 -0.089999914 0.009000063 -0.13499999 l -0.75600004 -0.9719999 c -0.35999995 -0.459 -0.55799997 -0.486 -0.8729999 -0.504 c -0.054000005 -0.05399999 -0.054000005 -0.24299999 0 -0.297 c 0.17999999 0.009 0.37799996 0.018 0.64799994 0.018 c 0.27000004 0 0.522 -0.009 0.756 -0.018 c 0.05400002 0.053999998 0.05400002 0.243 0 0.297 c -0.324 0.036000013 -0.39600003 0.072 -0.19799995 0.36 l 0.5669999 0.81899995 c 0.07200003 0.10800004 0.10800004 0.09899998 0.16199994 0.018000007 l 0.5220001 -0.71999997 c 0.31500006 -0.43199998 0.171 -0.45 -0.1170001 -0.477 c -0.0539999 -0.05399999 -0.0539999 -0.24299999 0 -0.297 c 0.26999998 0.009 0.56700015 0.018 0.89100003 0.018 c 0.342 0 0.5849998 -0.009 0.8009999 -0.018 c 0.0539999 0.053999998 0.0539999 0.243 0 0.297 c -0.40499997 0.02700001 -0.53999996 0.05399999 -0.89999986 0.567 l -0.80999994 1.143 c -0.036000013 0.05400002 -0.045000076 0.08099997 0 0.13499987 l 0.75600004 0.96300006 c 0.33299994 0.42299986 0.5489998 0.46799994 0.8729999 0.4949999 c 0.0539999 0.05400014 0.0539999 0.24300003 0 0.29700017 c -0.18000007 -0.009000063 -0.38700008 -0.018000126 -0.65700006 -0.018000126 c -0.26999998 0 -0.52199984 0.009000063 -0.7559998 0.018000126 c -0.05400014 -0.05400014 -0.05400014 -0.24300003 0 -0.29700017 c 0.33299994 -0.036000013 0.43199992 -0.062999964 0.21599984 -0.36899996 l -0.58500004 -0.819 c -0.062999964 -0.089999914 -0.09899998 -0.08099985 -0.171 0.018000126 Z "/>
        </symbol>
        <symbol id="g3C4CB4D03344E8EC64EDEA5507AFD5CE" overflow="visible">
            <path d="M 0 0m 3.9959998 3.4829998 c 0.171 0 0.33300018 0.16199994 0.33300018 0.342 c 0 0.18900013 -0.171 0.33300018 -0.41400027 0.33300018 c -0.23399997 0 -0.6659999 -0.15300035 -0.89999986 -0.4590001 c -0.10800004 0.07200003 -0.40499997 0.25199986 -0.9359999 0.25199986 c -0.801 0 -1.539 -0.53999996 -1.539 -1.3679998 c 0 -0.48600006 0.21600002 -0.765 0.46799994 -1.008 c -0.2519999 -0.21599996 -0.3959999 -0.603 -0.3959999 -0.909 c 0 -0.32399997 0.17999995 -0.576 0.41399992 -0.69299996 c -0.48599994 -0.288 -0.7379999 -0.70199996 -0.7379999 -1.089 c 0 -0.783 0.7379999 -1.026 1.431 -1.026 c 1.2149998 0 2.5289998 0.58500004 2.5289998 1.5569999 c 0 0.288 -0.13499975 0.513 -0.3959999 0.729 c -0.35099983 0.288 -0.98099995 0.297 -1.3139999 0.297 c -0.16199994 0 -0.38699985 -0.018000007 -0.6029999 -0.045000017 c -0.13499999 -0.008999974 -0.22500002 -0.017999977 -0.26999998 -0.017999977 c -0.26100004 0 -0.576 0.12599996 -0.576 0.513 c 0 0.18 0.05400002 0.36900002 0.16199994 0.522 c 0.21599996 -0.12600005 0.46800005 -0.18900001 0.819 -0.18900001 c 0.79200006 0 1.5209999 0.495 1.5209999 1.3769999 c 0 0.4230001 -0.12599993 0.6660001 -0.38700008 0.9360001 c 0.0630002 0.089999914 0.24300003 0.21599984 0.36000013 0.21599984 c 0.062999964 0 0.12599993 -0.02699995 0.18000007 -0.10800004 c 0.035999775 -0.07199979 0.15299988 -0.16199994 0.25199986 -0.16199994 Z m -2.8079998 -3.5729997 c 0.09899998 -0.027000003 0.24300003 -0.044999994 0.36 -0.044999994 c 0.27899992 0 0.531 0.026999995 0.65699995 0.026999995 c 0.45000005 0 0.82799983 -0.009000003 1.089 -0.15299998 c 0.35099983 -0.19800001 0.45899987 -0.324 0.45899987 -0.55799997 c 0 -0.64799994 -0.954 -0.98999995 -1.7639998 -0.98999995 c -0.324 0 -1.0799999 0.26099992 -1.0799999 0.8729999 c 0 0.306 0.018000007 0.531 0.27899998 0.846 Z m 1.6829998 2.6009998 c 0 -0.837 -0.42299986 -1.008 -0.7559998 -1.008 c -0.75600004 0 -0.837 0.63900006 -0.837 1.215 c 0 0.6299999 0.2249999 0.954 0.7199999 0.954 c 0.5669999 0 0.8729999 -0.41400003 0.8729999 -1.161 Z "/>
        </symbol>
        <symbol id="g192899D9EC86A1DA78875119DCCE126C" overflow="visible">
            <path d="M 0 0m 1.5839999 3.222 c -0.017999887 0.3599999 -0.02699995 0.59399986 -0.07199991 0.684 c -0.018000007 0.044999838 -0.036000013 0.07200003 -0.10800004 0.07200003 c -0.25199997 -0.09899998 -0.48599994 -0.18000007 -1.1069999 -0.26100016 c -0.018000007 -0.0539999 0 -0.19799995 0.018000007 -0.25199986 c 0.48599994 -0.045000076 0.585 -0.09000015 0.585 -0.612 v -1.755 c 0 -0.747 -0.10800004 -0.78299993 -0.666 -0.81899995 c -0.054000005 -0.05399999 -0.054000005 -0.24299999 0 -0.297 c 0.31499997 0.009 0.666 0.018 1.026 0.018 c 0.3599999 0 0.7739999 -0.009 1.089 -0.018 c 0.0539999 0.053999998 0.0539999 0.243 0 0.297 c -0.63 0.045000017 -0.73800004 0.072 -0.73800004 0.81899995 v 1.251 c 0 0.23399997 0.10800004 0.44099998 0.21599996 0.6029999 c 0.09899998 0.14400005 0.306 0.44099998 0.41400003 0.44099998 c 0.08099985 0 0.16199994 -0.018000126 0.23399997 -0.1170001 c 0.062999964 -0.089999914 0.171 -0.20700002 0.32399988 -0.20700002 c 0.21600008 0 0.4230001 0.22500014 0.4230001 0.45000005 c 0 0.171 -0.16199994 0.43199992 -0.53999996 0.43199992 c -0.4230001 0 -0.79200006 -0.3959999 -0.99899995 -0.747 c -0.05400002 -0.09899998 -0.0990001 -0.02699995 -0.0990001 0.018000126 Z "/>
        </symbol>
        <symbol id="g964C349C6AA2468F8D344E07736D6B7C" overflow="visible">
            <path d="M 0 0m 1.4039999 3.3119998 c -0.008999944 0.26999998 -0.02699995 0.50399995 -0.07200003 0.5940001 c -0.018000007 0.044999838 -0.035999894 0.07200003 -0.10799992 0.07200003 c -0.25200003 -0.09899998 -0.486 -0.18000007 -1.107 -0.26100016 c -0.018000007 -0.0539999 0 -0.19799995 0.017999992 -0.25199986 c 0.486 -0.045000076 0.585 -0.09000015 0.585 -0.612 v -3.843 c 0 -0.7469999 -0.09899998 -0.792 -0.648 -0.81899995 c -0.053999998 -0.05400002 -0.053999998 -0.24299991 0 -0.29700005 c 0.315 0.009000063 0.648 0.018000126 1.0079999 0.018000126 c 0.36 0 0.79200006 -0.009000063 1.089 -0.018000126 c 0.0539999 0.05400014 0.0539999 0.24300003 0 0.29700005 c -0.63899994 0.036000013 -0.7379999 0.07200003 -0.7379999 0.81899995 v 0.97199994 c 0 0.11699999 0.035999894 0.107999995 0.12599993 0.072 c 0.22500002 -0.089999996 0.4949999 -0.144 0.783 -0.144 c 0.50399995 0 0.954 0.153 1.323 0.50399995 c 0.4230001 0.41399997 0.6660001 0.97199994 0.6660001 1.701 c 0 0.95399976 -0.6750002 1.8359997 -1.5930002 1.8359997 c -0.41400003 0 -0.8729999 -0.26999998 -1.2329999 -0.67499995 c -0.05400002 -0.0539999 -0.089999914 -0.0539999 -0.09899998 0.036000013 Z m 0.171 -0.33299994 c 0.23399997 0.2880001 0.6479999 0.5580001 0.90900004 0.5580001 c 0.576 0 1.0709999 -0.648 1.0709999 -1.665 c 0 -0.73800004 -0.26099992 -1.656 -1.2689998 -1.656 c -0.16200018 0 -0.47700012 0.044999987 -0.63900006 0.18899998 c -0.18000007 0.162 -0.21599996 0.21600002 -0.21599996 0.53999996 v 1.638 c 0 0.18899989 0.035999894 0.26999998 0.14399993 0.3959999 Z "/>
        </symbol>
    </defs>
</svg>
